<?xml version="1.0" encoding="utf-8"?>
<!-- Generator: Adobe Illustrator 28.0.0, SVG Export Plug-In . SVG Version: 6.00 Build 0)  -->
<svg version="1.1" id="Calque_1" xmlns="http://www.w3.org/2000/svg" xmlns:xlink="http://www.w3.org/1999/xlink" x="0px" y="0px"
	 viewBox="0 0 240.94 153.07" style="enable-background:new 0 0 240.94 153.07;" xml:space="preserve">
<style type="text/css">
	.st0{fill:#17539B;}
	.st1{fill:#10A2DD;}
	.st2{font-family:'Infra-Regular';}
	.st3{font-size:20.706px;}
	.st4{font-family:'Infra-Bold';}
</style>
<g>
	<g>
		<g>
			<g>
				<path class="st0" d="M141.12,58.09h13.77v33.67c0,5.34-1.94,9.59-5.82,12.76c-3.88,3.16-9.11,4.75-15.67,4.75
					c-3.77,0-7.14-0.45-10.13-1.34c-2.99-0.89-5.41-2.07-7.27-3.53l6.74-10.02c3.2,2.26,6.67,3.39,10.41,3.39
					c2.56,0,4.48-0.65,5.74-1.96c1.26-1.31,1.89-2.74,1.89-4.29v-1.91c-2.28,3.08-5.45,4.62-9.49,4.62c-4.89,0-8.84-1.72-11.84-5.15
					c-3-3.44-4.5-7.89-4.5-13.38c0-5.51,1.51-9.99,4.52-13.47c3.01-3.47,6.95-5.21,11.82-5.21c2.16,0,4.08,0.45,5.75,1.36
					c1.67,0.91,3.04,2.06,4.09,3.48V58.09z M135.19,82.62c1.81,0,3.26-0.64,4.36-1.91c1.09-1.27,1.64-2.94,1.64-5.01
					c0-2.09-0.55-3.79-1.66-5.08c-1.11-1.29-2.55-1.94-4.34-1.94c-1.79,0-3.22,0.65-4.31,1.94c-1.08,1.29-1.62,2.99-1.62,5.08
					c0,2.07,0.54,3.74,1.62,5.01C131.96,81.99,133.4,82.62,135.19,82.62z"/>
				<path class="st0" d="M98.76,76.52c-1.39,2.57-2.86,4.4-4.41,5.51c-1.55,1.11-3.44,1.66-5.65,1.66c-3.08,0-5.56-1.21-7.43-3.62
					c-1.87-2.41-2.81-5.62-2.81-9.62c0-4,0.94-7.21,2.81-9.62c1.87-2.41,4.35-3.62,7.43-3.62c2.31,0,4.21,0.49,5.72,1.46
					c1.51,0.98,2.94,2.68,4.31,5.1l11.97-6.46c-1.69-4.02-4.58-7.28-8.67-9.78c-4.08-2.49-8.57-3.74-13.47-3.74
					c-4.94,0-9.34,1.11-13.18,3.34c-3.85,2.22-6.84,5.36-8.97,9.41c-2.13,4.05-3.19,8.68-3.19,13.91c0,4.18,0.66,7.95,1.97,11.3
					c1.49-0.66,3.13-1.03,4.87-1.03c6.63,0,12.01,5.38,12.01,12.01c0,1.23-0.19,2.43-0.53,3.55c2.19,0.55,4.53,0.82,7.03,0.82
					c4.68,0,8.99-1.25,12.94-3.76c3.94-2.51,7.03-5.95,9.27-10.32L98.76,76.52z"/>
			</g>
		</g>
		<circle class="st1" cx="70.11" cy="92.73" r="8.04"/>
	</g>
	<text transform="matrix(1 0 0 1 160.4925 71.9117)"><tspan x="0" y="0" class="st0 st2 st3">avec</tspan><tspan x="0" y="20.64" class="st0 st4 st3">O’dellya</tspan></text>
	<g>
		<text transform="matrix(1 0 0 1 -2.136230e-04 82.4053)" class="st0 st2 st3">Le</text>
		<g>
			<polygon class="st1" points="27.34,58.54 27.14,92.64 42.11,62.95 			"/>
			<polygon class="st1" points="45.64,65.45 29.68,94.53 56.99,75.46 			"/>
		</g>
	</g>
</g>
</svg>
