<?xml version="1.0" encoding="UTF-8"?>
<svg id="Calque_1" data-name="Calque 1" xmlns="http://www.w3.org/2000/svg" viewBox="0 0 1000 839.18">
  <defs>
    <style>
      .cls-1 {
        fill: #14529a;
        stroke-width: 0px;
      }
    </style>
  </defs>
  <path class="cls-1" d="m64.24,469.95c-5.87,18.72-12.26,37.3-17.45,56.21-5.53,20.15-7.16,40.93-5.75,61.75,3.05,44.76,22.11,81.81,55,112.1,30.6,28.17,66.75,44.43,107.41,52.08,35.88,6.75,72.02,8.63,108.28,6.69,107.76-5.76,207.29-38.21,298.57-95.33,109.95-68.81,190.54-163.56,244.62-281.09,8.13-17.66,15.3-35.76,22.71-53.74,1.27-3.07,2.46-3.9,5.83-3.03,10.97,2.83,22.05,5.24,33.09,7.78,1.25.29,2.54.42,4.98.81-23.7-60.95-47.06-121.06-70.79-182.08-48.56,43.85-96.49,87.12-145.45,131.34,14.81,3.48,28.44,6.68,42.7,10.03-2.32,6.91-4.47,13.57-6.78,20.18-30.97,88.54-81.59,164.33-150.12,228-61.1,56.77-130.52,100.2-210.34,126.02-24.37,7.88-49.21,13.79-74.59,17.14-21.51,2.84-43.17,3.84-64.85,1.88-40.97-3.71-79.12-15.09-111.56-41.66-24.7-20.23-39.83-46.2-45.79-77.46-7.55-39.62-.86-77.48,14.48-114.25,9.54-22.85,23.12-43.02,40.8-62.15-1.26,5.34-2.28,9.44-3.18,13.56-.94,4.3-1.84,8.61-2.62,12.94-5.92,32.81-7.46,65.51,3.38,97.69,14.89,44.22,46.04,70.86,90.64,82.32,20.54,5.28,41.5,6.32,62.7,4.71,52.47-3.97,100.27-22,145.41-47.91,58.98-33.86,107.51-79.54,149.06-132.99,4.97-6.4,2.64-6,10.44-2.55,7.28,3.22,14.48,6.63,21.72,9.94,1.29.59,2.62,1.1,5.13,2.15-11.05-53.07-21.88-105.04-32.92-158.08-45.55,29.14-90.3,57.77-136.19,87.13,11.57,4.95,22.14,9.48,33.19,14.21-.93,2.17-1.69,4.18-2.62,6.11-27.39,57.38-71.49,97.76-128,125.42-20.68,10.12-42.2,18.04-64.96,21.91-25.32,4.31-50.57,5.76-75.31-3.7-26.51-10.14-40.17-29.72-42.56-57.5-1.47-17.15-3.25-34.35-3.39-51.53-.55-66.05,14.56-128.72,44.83-187.23C272.46,114.79,364.31,43.24,487.37,11.64,521.4,2.9,556.2-.73,591.26.12c107.14,2.61,200.37,40.2,278.41,113.71,62.39,58.78,102.58,130.53,120.95,214.34,7.65,34.9,10.53,70.29,8.97,105.91-7.06,161.11-106.91,296-238.15,357.43-36.95,17.3-75.74,28.37-116.07,34.47-28.14,4.25-56.42,5.4-84.75,4.08-30.41-1.41-60.31-6.5-89.51-15.26-3.42-1.03-6.42-.9-9.82.09-33.57,9.8-67.66,16.99-102.46,20.86-31.04,3.45-62.13,4.38-93.27,2.38-55.41-3.57-108.81-15.12-158.29-41.37-31.59-16.76-59.35-38.1-79.47-68.23-15.68-23.48-25.27-49.11-27.3-77.45-2.63-36.73,5.24-71.46,19.7-104.93,11.58-26.8,26.87-51.47,43.85-75.14.25-.35.51-.7.76-1.05-.19,0-.38,0-.57,0Z"/>
</svg>